<svg width="64" height="64" viewBox="0 0 64 64" fill="none" xmlns="http://www.w3.org/2000/svg">
<path d="M41.2173 17C42.6086 17.6667 45.4956 19.8 45.913 23V30.5C45.913 31.0523 45.4653 31.5 44.913 31.5H39.6086C39.0564 31.5 38.6086 31.0523 38.6086 30.5V23C38.6086 20.2 40.3478 17.8333 41.2173 17Z" fill="#FF8CC3"/>
<path d="M41.2173 17C42.6086 17.6667 45.4956 19.8 45.913 23M41.2173 17C40.3478 17.8333 38.6086 20.2 38.6086 23V30.5C38.6086 31.0523 39.0564 31.5 39.6086 31.5H44.913C45.4653 31.5 45.913 31.0523 45.913 30.5V23M41.2173 17C41.2173 20 39.6521 24 45.913 23" stroke="#FF48A0" stroke-width="2"/>
<mask id="mask0_1459_634" style="mask-type:alpha" maskUnits="userSpaceOnUse" x="2" y="2" width="60" height="60">
<circle cx="32" cy="32" r="30" fill="#D9D9D9"/>
</mask>
<g mask="url(#mask0_1459_634)">
<path d="M45.913 31.5H38.6087H37C36.4477 31.5 36 31.9477 36 32.5V46.5C36 47.0523 36.4477 47.5 37 47.5H47C47.5523 47.5 48 47.0523 48 46.5V32.5C48 31.9477 47.5523 31.5 47 31.5H45.913Z" fill="#B18CFF" stroke="#480CC7" stroke-width="2"/>
<rect x="34" y="46" width="16" height="33" rx="1" fill="#B18CFF" stroke="#480CC7" stroke-width="2"/>
<path d="M12 24.5C12 20.3579 15.3579 17 19.5 17V17C23.6421 17 27 20.3579 27 24.5V49C27 49.5523 26.5523 50 26 50H13C12.4477 50 12 49.5523 12 49V24.5Z" fill="#B18CFF" stroke="#480CC7" stroke-width="2" stroke-miterlimit="16"/>
<mask id="mask1_1459_634" style="mask-type:alpha" maskUnits="userSpaceOnUse" x="11" y="16" width="17" height="35">
<path d="M12 24.5C12 20.3579 15.3579 17 19.5 17V17C23.6421 17 27 20.3579 27 24.5V49C27 49.5523 26.5523 50 26 50H13C12.4477 50 12 49.5523 12 49V24.5Z" fill="#B18CFF" stroke="#480CC7" stroke-width="2" stroke-miterlimit="16"/>
</mask>
<g mask="url(#mask1_1459_634)">
<path opacity="0.2" d="M23.1001 30.8391C20.2709 39.7916 13.2815 45.5649 7.48872 43.7343C1.69596 41.9037 -0.706524 33.1623 2.12262 24.2098C4.95176 15.2574 11.9412 9.48401 17.734 11.3146C23.5267 13.1453 25.9292 21.8867 23.1001 30.8391Z" fill="white"/>
</g>
</g>
</svg>
